# xmcd
# 
# Track frame offsets:
#     150
#     6555
#     8072
#     18777
#     40652
#     47230
#     67967
#     70340
#     89520
#     102430
#     122390
#     127115
#     132767
#     154327
#     163792
#     180900
# 
# Disc length: 2604
# 
# Revision: 13
# Processed by: cddbd v1.5.2PL0 Copyright (c) Steve Scherf et al.
# Submitted via: fre:ac v1.0.31
# 
DISCID=ce0a2a10
DTITLE=Various Artist - 踊る大捜査線 Rhythm And Police Original Sound Track 2 Sound File
DYEAR=1997
DGENRE=Soundtrack
TTITLE0=Love Somebody [Orgel Version]
TTITLE1=Rhythm And Police on TV
TTITLE2=C.X. [Orchestra Version]
TTITLE3=Love Somebody [Orchestra Version]
TTITLE4=取調室
TTITLE5=危機一髪
TTITLE6=MUROI
TTITLE7=事件
TTITLE8=C.X. [Piano Version]
TTITLE9=Love Somebody [Jesus Version]
TTITLE10=C.X. [Woodwind Version]
TTITLE11=PINK SAPPHIRE
TTITLE12=DUE
TTITLE13=予兆
TTITLE14=WORK
TTITLE15=Love Somebody [Piano Version 2]
EXTD=
EXTT0=
EXTT1=
EXTT2=
EXTT3=
EXTT4=
EXTT5=
EXTT6=
EXTT7=
EXTT8=
EXTT9=
EXTT10=
EXTT11=
EXTT12=
EXTT13=
EXTT14=
EXTT15=
PLAYORDER=
